HIERARCHY
ROOT Hips
{
	OFFSET 0.000000 0.000000 0.000000 
	CHANNELS 6 Xposition Yposition Zposition Zrotation Yrotation Xrotation
	JOINT LeftUpLeg
	{
		OFFSET 1.363060 -1.794630 0.839290 
		CHANNELS 3 Zrotation Yrotation Xrotation
		JOINT LeftLeg
		{
			OFFSET 2.448110 -6.726130 0.000000 
			CHANNELS 3 Zrotation Yrotation Xrotation
			JOINT LeftFoot
			{
				OFFSET 2.562200 -7.039590 0.000000 
				CHANNELS 3 Zrotation Yrotation Xrotation
				JOINT LeftToeBase
				{
					OFFSET 0.157640 -0.433110 2.322550 
					CHANNELS 3 Zrotation Yrotation Xrotation
					End Site
					{
						OFFSET 0.000000 0.000000 0.000000 
					}
				}
			}
		}
	}
	JOINT RightUpLeg
	{
		OFFSET -1.305520 -1.794630 0.839290 
		CHANNELS 3 Zrotation Yrotation Xrotation
		JOINT RightLeg
		{
			OFFSET -2.542530 -6.985550 0.000000 
			CHANNELS 3 Zrotation Yrotation Xrotation
			JOINT RightFoot
			{
				OFFSET -2.568260 -7.056230 0.000000 
				CHANNELS 3 Zrotation Yrotation Xrotation
				JOINT RightToeBase
				{
					OFFSET -0.164730 -0.452590 2.363150 
					CHANNELS 3 Zrotation Yrotation Xrotation
					End Site
					{
						OFFSET 0.000000 0.000000 0.000000 
					}
				}
			}
		}
	}
	JOINT Spine
	{
		OFFSET 0.028270 2.035590 -0.193380 
		CHANNELS 3 Zrotation Yrotation Xrotation
		JOINT Spine1
		{
			OFFSET 0.056720 2.048850 -0.042750 
			CHANNELS 3 Zrotation Yrotation Xrotation
			JOINT Neck1
			{
				OFFSET -0.054170 1.746240 0.172020 
				CHANNELS 3 Zrotation Yrotation Xrotation
				JOINT Head
				{
					OFFSET 0.104070 1.761360 -0.123970 
					CHANNELS 3 Zrotation Yrotation Xrotation
					End Site
					{
						OFFSET 0.000000 0.000000 0.000000 
					}
				}
			}
			JOINT LeftArm
			{
				OFFSET 3.362410 1.200890 -0.311210 
				CHANNELS 3 Zrotation Yrotation Xrotation
				JOINT LeftForeArm
				{
					OFFSET 4.983000 -0.000000 -0.000000 
					CHANNELS 3 Zrotation Yrotation Xrotation
					JOINT LeftHand
					{
						OFFSET 3.483560 -0.000000 -0.000000 
						CHANNELS 3 Zrotation Yrotation Xrotation
						JOINT LeftHandIndex1
						{
							OFFSET 0.715260 -0.000000 -0.000000 
							CHANNELS 3 Zrotation Yrotation Xrotation
							End Site
							{
								OFFSET 0.000000 0.000000 0.000000 
							}
						}
					}
				}
			}
			JOINT RightArm
			{
				OFFSET -3.136600 1.374050 -0.404650 
				CHANNELS 3 Zrotation Yrotation Xrotation
				JOINT RightForeArm
				{
					OFFSET -5.241900 -0.000000 -0.000000 
					CHANNELS 3 Zrotation Yrotation Xrotation
					JOINT RightHand
					{
						OFFSET -3.444170 -0.000000 -0.000000 
						CHANNELS 3 Zrotation Yrotation Xrotation
						JOINT RightHandIndex1
						{
							OFFSET -0.622530 -0.000000 -0.000000 
							CHANNELS 3 Zrotation Yrotation Xrotation
							End Site
							{
								OFFSET 0.000000 0.000000 0.000000 
							}
						}
					}
				}
			}
		}
	}
}
MOTION
Frames: 12
Frame Time: 0.041667
6.408721 17.890311 35.385959 -179.552056 7.058378 -149.938464 -25.976736 -17.427044 -26.906663 -1.164591 5.583089 10.654229 0.564475 -1.291178 -15.402980 3.681900 -11.724600 -34.764400 25.811628 26.024714 -32.681093 0.979936 -9.108965 17.796561 -0.940576 -2.047295 -22.444536 -2.117100 9.105900 -26.127300 1.442907 -0.304194 -4.612984 1.690599 -0.984484 12.527108 9.165127 -6.562058 29.999001 1.357200 -1.227900 7.413000 -102.010478 -2.366854 22.192374 20.692316 -26.518857 -6.435449 -1.374155 0.389601 -3.087111 -7.125000 0.000000 0.000000 97.413705 -6.413680 8.034036 -16.229096 27.825440 -5.144428 0.586184 3.438413 -1.663465 7.125000 0.000000 0.000000 
6.412978 17.887254 35.363688 -179.605091 6.882300 -149.988226 -26.238412 -16.795139 -26.990577 -1.122716 5.602237 10.756415 0.423509 -2.139611 -15.182940 3.797700 -11.886200 -35.330400 25.876452 25.918382 -32.346912 0.999895 -8.997696 17.570358 -0.944778 -2.411083 -22.454197 -2.018800 8.905000 -25.498700 1.438207 -0.302449 -4.625428 1.642780 -0.983663 12.544616 9.112787 -6.517644 30.103973 1.344600 -1.195700 7.459600 -102.034412 -2.465217 22.266843 20.694191 -26.523745 -6.456087 -1.281612 0.328953 -2.997845 -7.125000 0.000000 0.000000 97.458371 -6.579280 7.747605 -16.151582 27.742592 -5.106472 0.586592 3.454367 -1.717971 7.125000 0.000000 0.000000 
6.414289 17.879612 35.336503 -179.711899 6.744781 -150.048860 -26.448373 -16.786213 -26.808432 -1.115347 5.564662 10.696208 0.395099 -2.317009 -15.144233 3.733900 -11.797600 -35.019600 25.946106 25.501128 -31.943221 1.028278 -8.754024 17.027745 -0.918877 -2.638717 -22.102970 -2.004900 8.876300 -25.409100 1.364445 -0.165103 -4.628269 1.429643 -0.909901 12.597900 9.092019 -6.603253 30.199896 1.296500 -1.207000 7.456300 -101.860842 -2.584702 22.628927 20.698647 -26.521973 -6.456783 -1.292415 0.318458 -3.029220 -7.125000 0.000000 0.000000 97.788856 -6.899405 7.268834 -16.165663 27.796309 -5.120943 0.596209 3.462140 -1.755194 7.125000 0.000000 0.000000 
6.417673 17.875136 35.311175 -179.895390 6.587230 -150.137462 -26.727806 -16.765119 -26.669190 -1.100278 5.561714 10.721131 0.355105 -2.497186 -14.941475 3.730800 -11.793300 -35.004600 26.052112 24.984914 -31.430357 1.062049 -8.442948 16.339843 -0.885913 -2.939625 -21.636250 -2.116500 9.104700 -26.123300 1.433284 -0.442794 -4.643502 1.504383 -1.049190 12.709760 8.913842 -6.389862 30.334404 1.323600 -1.134600 7.504900 -102.229643 -2.514212 22.171362 20.780237 -26.613702 -6.494707 -1.331414 0.290586 -2.968149 -7.125000 0.000000 0.000000 97.486657 -6.983372 7.492532 -16.066217 27.677056 -5.070456 0.609114 3.481953 -1.767972 7.125000 0.000000 0.000000 
6.421276 17.868804 35.290214 179.982967 6.378298 -150.095141 -26.823069 -16.836326 -26.678756 -1.087945 5.562477 10.719445 0.297631 -2.914474 -15.077565 3.830500 -11.931400 -35.489700 26.165123 24.588575 -31.116261 1.092846 -8.221327 15.838043 -0.869454 -3.297491 -21.391312 -2.313900 9.491300 -27.344700 1.491944 -0.659614 -4.664533 1.555124 -1.154134 12.836965 8.819352 -6.130182 30.419266 1.388800 -1.040000 7.551500 -102.585906 -2.470937 21.867283 20.873127 -26.717177 -6.540645 -1.375947 0.263280 -2.922240 -7.125000 0.000000 0.000000 97.311167 -6.920344 7.357510 -15.902436 27.466135 -4.983330 0.611342 3.491245 -1.601581 7.125000 0.000000 0.000000 
6.423459 17.868913 35.267724 179.901127 6.234959 -150.240209 -26.911175 -17.084931 -26.266980 -1.097339 5.460447 10.506565 0.319664 -2.778353 -15.048487 3.670400 -11.708300 -34.707800 26.398280 24.058958 -30.643645 1.091786 -8.030829 15.490198 -0.870854 -3.047106 -21.319719 -2.319400 9.501900 -27.378400 1.486677 -0.675633 -4.665081 1.462855 -1.154559 12.855493 8.710222 -6.125684 30.392802 1.360800 -1.052800 7.529500 -102.758717 -2.516450 21.737096 20.871639 -26.715072 -6.545070 -1.361360 0.294021 -2.817761 -7.125000 0.000000 0.000000 97.386376 -6.917407 6.909402 -15.745581 27.271101 -4.902382 0.623829 3.500442 -1.290874 7.125000 0.000000 0.000000 
6.423677 17.871424 35.245780 179.861901 6.112293 -150.372469 -27.005294 -17.063738 -26.083313 -1.087839 5.467941 10.571649 0.306691 -2.839612 -14.974989 3.581600 -11.581800 -34.268000 26.504268 23.751164 -30.186900 1.085949 -7.842839 15.131514 -0.872417 -2.572282 -21.267657 -1.962400 8.787400 -25.132500 1.462877 -0.619335 -4.671934 1.312462 -1.111758 12.815130 8.737273 -6.236151 30.251547 1.348400 -1.114100 7.458500 -102.861725 -2.633391 21.616092 20.799600 -26.627536 -6.510582 -1.316419 0.335765 -2.698583 -7.125000 0.000000 0.000000 97.487572 -6.960255 6.502880 -15.600719 27.095363 -4.830277 0.648480 3.516245 -0.945036 7.125000 0.000000 0.000000 
6.423568 17.872188 35.219906 179.940075 5.947541 -150.468789 -26.881501 -17.389756 -25.683141 -1.107643 5.384840 10.402818 0.373220 -2.476028 -15.089429 3.603600 -11.613300 -34.377400 26.737049 23.695613 -29.635202 1.104710 -7.621902 14.666926 -0.872983 -2.583503 -21.208856 -1.770400 8.370600 -23.845400 1.494541 -0.652981 -4.678789 1.223091 -1.116891 12.827506 8.513267 -6.304168 30.200214 1.249400 -1.165300 7.433600 -103.143687 -2.694793 21.362986 20.736648 -26.536849 -6.470394 -1.303373 0.331923 -2.562249 -7.125000 0.000000 0.000000 97.406980 -6.956712 6.287265 -15.444525 26.894808 -4.748416 0.654296 3.510072 -0.649037 7.125000 0.000000 0.000000 
6.424332 17.873826 35.192503 179.954388 5.778907 -150.594517 -26.821235 -17.939451 -25.093346 -1.141468 5.225406 10.043868 0.469061 -1.961497 -15.297184 3.585000 -11.586600 -34.284800 27.047473 23.435717 -29.099321 1.121987 -7.427388 14.289009 -0.875461 -2.792073 -21.154812 -1.934200 8.727700 -24.947200 1.531867 -0.715927 -4.691358 1.210371 -1.140652 12.815805 8.534085 -5.927624 30.598191 1.377700 -0.965500 7.623100 -103.456987 -2.644098 21.202862 20.697468 -26.464077 -6.436415 -1.328352 0.302104 -2.579157 -7.125000 0.000000 0.000000 97.276843 -7.052996 6.218284 -15.319428 26.733032 -4.682757 0.652369 3.490843 -0.628421 7.125000 0.000000 0.000000 
6.425424 17.880813 35.172306 179.859956 5.675859 -150.746854 -27.036118 -17.765822 -25.053813 -1.110259 5.321539 10.334383 0.400961 -2.394808 -15.261566 3.393100 -11.305700 -33.317800 27.203200 23.084019 -28.683274 1.125237 -7.280621 14.030357 -0.875264 -2.849596 -21.071226 -2.039700 8.948300 -25.633600 1.525721 -0.685487 -4.699255 1.178712 -1.120922 12.774667 8.508317 -6.017433 30.486384 1.332000 -1.009600 7.561500 -103.626908 -2.652251 21.269010 20.640852 -26.373695 -6.392727 -1.358159 0.277292 -2.701590 -7.125000 0.000000 0.000000 97.213417 -7.273458 6.343715 -15.332678 26.760635 -4.691608 0.641020 3.501445 -1.027910 7.125000 0.000000 0.000000 
6.425206 17.884307 35.156803 179.857500 5.677659 -150.688948 -27.015820 -17.869310 -25.054777 -1.113773 5.360563 10.432831 0.424539 -2.395062 -15.616318 3.647600 -11.676100 -34.595700 27.206675 23.063945 -28.597636 1.134345 -7.210336 13.859353 -0.871866 -2.907375 -21.022502 -2.046700 8.962700 -25.678600 1.509937 -0.551795 -4.715033 1.138265 -1.047153 12.784970 8.538861 -6.077065 30.276782 1.320100 -1.050800 7.457400 -103.811817 -2.694603 21.390559 20.586412 -26.296213 -6.361072 -1.362630 0.273928 -2.772304 -7.125000 0.000000 0.000000 97.180359 -7.464514 6.294530 -15.419154 26.877433 -4.733688 0.594526 3.522130 -1.096372 7.125000 0.000000 0.000000 
6.427389 17.887254 35.140864 179.802910 5.812722 -150.683638 -27.132142 -17.851147 -24.974796 -1.122682 5.356379 10.438241 0.466610 -2.182213 -15.740115 3.887800 -12.009600 -35.765800 27.111112 23.121930 -28.454221 1.139987 -7.123866 13.654778 -0.868003 -2.858376 -20.964438 -1.989700 8.844600 -25.310500 1.482110 -0.383722 -4.719140 1.164369 -0.963962 12.801846 8.688560 -6.030959 29.953452 1.364900 -1.044400 7.292100 -104.027798 -2.701595 21.304348 20.587997 -26.306114 -6.375584 -1.324865 0.268201 -3.174891 -7.125000 0.000000 0.000000 97.191679 -7.482836 5.914079 -15.421011 26.862460 -4.725288 0.554583 3.520146 -0.525642 7.125000 0.000000 0.000000 
